<?xml version="1.0" encoding="utf-8"?>
<!-- Generator: Adobe Illustrator 19.0.0, SVG Export Plug-In . SVG Version: 6.00 Build 0)  -->
<svg version="1.1" id="layer" xmlns="http://www.w3.org/2000/svg" xmlns:xlink="http://www.w3.org/1999/xlink" x="0px" y="0px"
	 viewBox="-153 -46 652 652" style="enable-background:new -153 -46 652 652;" xml:space="preserve">
<style type="text/css">
	.st0{fill:#00AAE5;}
	.st1{fill:#FFFFFF;}
</style>
<rect x="-81" y="25" class="st0" width="500" height="500"/>
<path class="st1" d="M-13.1,273.4H3.1v65.7h26.1v14.5h-42.3V273.4z M66.5,292.2c17.3-0.6,31.7,13,32.3,30.2c0,0.5,0,0.9,0,1.4
	c0,18.1-13.5,31.3-32.3,31.3s-32.2-13.2-32.2-31.3C34,306.6,47.8,292.4,65,292.2C65.5,292.2,66,292.2,66.5,292.2z M66.5,341
	c9,0.1,16.4-7.1,16.5-16.1c0-0.4,0-0.8,0-1.2c0-10.2-7-17.7-16.5-17.7s-16.4,7.3-16.4,17.7c-0.6,9,6.1,16.7,15.1,17.4
	c0.4,0,0.9,0,1.3,0V341z M127.7,315.3c4.5-0.1,9,1,13,3.3v-3.9c0-5.3-3.9-8.8-10.9-8.8c-5.6,0.1-11,1.6-15.9,4.2l-6-10.8
	c7-4.5,15.2-7,23.6-7.1c19.3,0,25,10.1,25,23.5v37.9h-14l-1-3.9c-3.8,3.8-9.1,5.8-14.5,5.4c-12.2,0-22.5-7.4-22.5-20.1
	C104.4,323.2,113.7,315.3,127.7,315.3z M130.6,342.9c6,0,10.3-3.2,10.3-8.3s-4.3-8.4-10.4-8.4s-10.3,3.4-10.3,8.3
	c0,4.9,4.5,8.3,10.5,8.3L130.6,342.9z M220.4,319v34.5h-15.8v-36.3c0.4-5.5-3.8-10.4-9.3-10.8c-0.2,0-0.4,0-0.7,0
	c-5.8-0.1-10.5,4.4-10.7,10.2c0,0.4,0,0.7,0,1.1v36h-15.8v-59.9h15.5v7c3.5-5.4,9.6-8.7,16-8.6C216.8,292.2,220.4,306.3,220.4,319z
	 M30.6,427.4l23-54.6h20.9V453H59v-57.4l-20.9,50.5h-15L2.3,395.6V453h-15.5v-80.1H7.7L30.6,427.4z M108.1,414.5c4.5-0.1,9,1,13,3.3
	V414c0-5.3-3.9-8.8-10.9-8.8c-5.5,0.2-11,1.6-15.8,4.3l-6.1-10.7c7-4.5,15.2-7,23.6-7.1c19.3,0,25,10.1,25,23.5V453h-14l-1-3.9
	c-3.8,3.8-9.1,5.8-14.5,5.4c-12.2,0-22.5-7.4-22.5-20.1C84.8,422.6,94.1,414.5,108.1,414.5z M111,442.2c6,0,10.3-3.2,10.3-8.3
	s-4.3-8.4-10.4-8.4s-10.3,3.4-10.3,8.4s4.6,8.3,10.6,8.3H111z M180.6,407.6c-11.8,0-16.2,7.3-16.2,19.3V453h-15.8v-60h15.5v8.6
	c3-6.4,9.5-10.3,16.5-10V407.6z M189.8,370.1h15.8v48.2l19.3-25.2h17.8l-21.1,27.2l22.7,32.8h-18.5l-20.1-31v31h-15.8L189.8,370.1z
	 M274.7,391.5c18.6,0,29.1,12.4,29.1,32c0.1,1.1,0.1,2.3,0,3.4h-42.3c0.3,8,6.8,13.7,15.6,13.7c5.8,0.1,11.2-2.6,14.5-7.3l10.4,7.9
	c-5.5,8.6-15.1,13.6-25.2,13.2c-19.3,0-31.6-13.3-31.6-31.3S257.6,391.5,274.7,391.5z M287.7,416.6c0-6.8-5.6-12.2-12.3-12.2
	c-0.2,0-0.4,0-0.5,0c-6.9-0.1-12.6,5.3-12.9,12.2H287.7z M314.1,380.4h15.6v12.5h11.2v12.9h-11.2v23.1c0,8.9,2.9,10.8,8.8,10.8
	c1,0.1,1.9,0.1,2.9,0v13.6c-2.2,0.4-4.5,0.6-6.8,0.6c-14.4,0-20.6-8-20.6-24.3V406h-6.3v-13.1h6.4V380.4z M345.8,381.4h-1.9V380h5.3
	v1.4h-2v6.6h-1.6L345.8,381.4z M354.7,385.5l2.3-5.5h2.1v8h-1.6v-5.7l-2.1,5.1h-1.5l-2.1-5.1v5.7h-1.6v-8h2.1L354.7,385.5z"/>
</svg>
